<svg width="106" height="60" fill="none" xmlns="http://www.w3.org/2000/svg">
  <path fill-rule="evenodd" clip-rule="evenodd" d="M50.1136 5.93452h-.1366c-.2099-.01271-.4199-.0178-.6299-.02289h-.4553c-.3972 0-.802.01018-1.2042.03052a.625339.625339 0 0 0-.091 0c-3.6444.20648-7.2149 1.11736-10.5161 2.68277l-.4326.20852V30.9746l1.0119-.3433c.8879-.3052 1.834-.5798 2.813-.8341 2.6465-.6794 5.3639-1.0405 8.0952-1.0756v2.909c-.3618.0026-.7134.0128-1.065.0306h-.0835c-2.102.1153-4.1878.4355-6.2282.9561-2.5841.647-5.077 1.6184-7.4197 2.8913V7.11189c2.4331-1.41914 5.0537-2.48502 7.784-3.16593 2.3971-.61891 4.8613-.93665 7.3362-.94596h.4275c.511.01271 1.0094.0356 1.4774.0712 1.233.08658 2.4561.28143 3.6554.58233v2.86332c-1.1647-.27134-2.3489-.4499-3.5416-.53401-.0242-.00205-.0484-.00412-.0726-.00618-.2468-.02105-.4939-.04214-.7243-.04214Zm5.0392 2.92686c.6349.04832 1.2927.07121 1.958.07121 2.6017-.00952 5.1923-.34176 7.7131-.9892 2.5829-.64943 5.0747-1.62161 7.4172-2.89383V32.9402c-2.4344 1.4183-5.0558 2.4841-7.7865 3.1659-2.3975.6166-4.8615.9334-7.3362.9435-1.8751.0151-3.7447-.2053-5.5654-.6561V8.32229c.43.09917.8727.19072 1.323.267.7387.12461 1.5179.21615 2.2768.27209Zm14.1943.21615-1.0119.34075c-.931.31278-1.8695.59252-2.8131.84172-2.7472.706-5.5707 1.0681-8.4063 1.0782-.6602 0-1.2673-.0178-1.8542-.056l-.807-.0534V34.0057l.6931.061c.6426.056 1.3054.0839 1.9732.0839 2.2335-.0094 4.4572-.2973 6.6203-.8569 1.7811-.4468 3.514-1.0694 5.1733-1.8589l.4326-.2085V9.07753Z" fill="#AFB1B8"/>
  <path d="M35.7371 45.2124c-.1454-.1509-.3208-.2694-.5147-.3478-.194-.0784-.4021-.115-.611-.1074-.2226-.003-.4436.0385-.6501.1221-.1894.0754-.3615.1887-.506.3331-.1428.1448-.254.318-.3263.5086-.0793.1997-.1189.4131-.1164.6281v3.794c-.009.2673.042.5333.1493.7781.0895.1944.2188.3677.3794.5086.1517.1277.3297.2197.5212.2696.1844.0518.3751.0783.5666.0788.2113.0021.4204-.0431.6122-.1322.1896-.083.3615-.2022.506-.351.1408-.1474.2532-.3198.3313-.5086.0811-.1913.1224-.3972.1215-.6052v-.4246h-.9917v.3382a.87958.87958 0 0 1-.0582.3382c-.0323.0807-.0814.1536-.1442.2136-.0614.0496-.1318.0868-.2074.1093-.067.0223-.1369.0343-.2074.0356-.0886.0103-.1782-.003-.26-.0388-.0817-.0357-.1526-.0925-.2055-.1646-.0935-.1525-.1393-.3296-.1315-.5086v-3.5372c-.0062-.1961.0355-.3908.1214-.567.0515-.0801.1243-.144.2102-.1845.0859-.0405.1813-.0559.2755-.0444.0855-.003.1704.0148.2475.052s.1441.0927.1952.1616c.111.1457.169.3252.1644.5086v.328h.9816v-.3865c.0019-.227-.0393-.4523-.1215-.6637-.0732-.1988-.186-.3805-.3314-.534ZM41.6289 45.1691c-.3162-.267-.7153-.4145-1.1282-.417-.202.0008-.4023.037-.592.1068-.1926.069-.3703.1743-.5236.3102-.1643.1477-.2954.3289-.3846.5315-.0999.2317-.149.4824-.1442.7349v3.6389c-.0068.256.0424.5103.1442.7451.0898.1956.221.3692.3846.5085.1516.1408.3296.2497.5236.3205.1897.0698.39.1059.592.1068.202-.0004.4024-.0366.5919-.1068.1974-.0718.3793-.1805.5363-.3205.1582-.1419.2856-.315.3744-.5085.1018-.2348.1511-.4891.1442-.7451v-3.6389c.0049-.2525-.0443-.5032-.1442-.7349-.0882-.2005-.2155-.3812-.3744-.5315Zm-.4629 4.9053c.0083.097-.0051.1946-.0392.2857-.0342.0911-.0882.1733-.1581.2407-.131.1098-.2962.17-.4668.17-.1706 0-.3357-.0602-.4667-.17-.07-.0674-.124-.1496-.1581-.2407a.652625.652625 0 0 1-.0392-.2857v-3.6389c-.0084-.097.005-.1946.0392-.2857.0341-.0911.0881-.1734.1581-.2407.131-.1098.2961-.17.4667-.17.1706 0 .3358.0602.4668.17.0699.0673.1239.1496.1581.2407.0341.0911.0475.1887.0392.2857v3.6389ZM49.3673 51.6994v-6.8887h-.9537l-1.2522 3.6465h-.0177l-1.2624-3.6465h-.9436v6.8887h.9841v-4.1907h.0177l.9638 2.9625h.4908l.9714-2.9625h.0177v4.1907h.9841ZM54.9581 45.2937c-.1516-.17-.3428-.2994-.5566-.3764-.2303-.0749-.4713-.111-.7134-.1068H52.226v6.8888h.9815v-2.6904h.5059c.3063.0139.611-.0509.8854-.1882.2232-.1239.4093-.3057.5389-.5264.1135-.1832.19-.3872.2251-.6001.0386-.2592.0564-.5212.0531-.7832.0096-.3308-.0227-.6615-.0961-.9841-.0655-.2384-.1899-.4563-.3617-.6332Zm-.506 2.1004c-.0042.1247-.0353.2471-.0911.3586-.0561.1059-.1448.1907-.2529.2415-.1454.0651-.304.0947-.463.0865h-.4477v-2.342h.5059c.1524-.0075.3042.0222.4427.0864.1015.0583.1821.1473.2302.2543.0537.121.0829.2516.086.384v.4577c0 .1602.0101.3255 0 .473h-.0101ZM59.6077 44.8107h-.8045l-1.5178 6.8887h.9815l.2884-1.48h1.3382l.2884 1.48h.9816l-1.5558-6.8887Zm-.9057 4.4704.4832-2.4971h.0177l.4807 2.4971h-.9816ZM65.9497 48.9607h-.0177l-1.4824-4.15h-.9436v6.8887h.9815V47.557h.0203l1.5001 4.1424h.9233v-6.8887h-.9815v4.15ZM71.9476 44.8107l-.7893 2.7387h-.0202l-.7893-2.7387h-1.0397l1.3483 3.9771v2.9116h.9816v-2.9116l1.3483-3.9771h-1.0397ZM33 53.6445h.4731v1.3274h.3212v-1.3274h.4706v-.2721H33v.2721ZM36.9767 53.3724l-.6198 1.5995h.3415l.1316-.3636h.6375l.1366.3636h.3491l-.635-1.5995h-.3415Zm-.0506.9663.2176-.5925.2175.5925h-.4351ZM40.9079 54.3821h.3694v.206c-.1079.0865-.2415.1339-.3795.1348-.0645.0036-.1289-.0084-.1879-.0349a.40557.40557 0 0 1-.1511-.1177c-.0848-.1218-.1266-.2686-.1189-.417 0-.356.1543-.534.4604-.534.0806-.0081.1614.0132.2277.0598.0664.0466.1139.1156.1341.1944l.3162-.061c-.0683-.3128-.2934-.4704-.678-.4704-.2056-.0055-.4056.0682-.559.206-.0806.0795-.143.1758-.1827.2821-.0398.1063-.056.22-.0475.3332-.0094.2189.0638.4332.2049.6002.0783.0808.1732.1435.278.1839.1048.0404.2171.0574.3291.05.2503.007.4934-.0842.678-.2543v-.6306h-.6932v.2695ZM44.9226 53.3724h-.3238v1.5995h1.1206v-.2721h-.7968v-1.3274ZM48.3175 53.3724h-.3238v1.5995h.3238v-1.5995ZM51.6365 54.4405l-.6552-1.0681h-.3137v1.5995h.301v-1.0451l.6426 1.0451h.3213v-1.5995h-.296v1.0681ZM54.6368 54.2675h.7969v-.2721h-.7969v-.3509h.8576v-.2721H54.313v1.5995h1.2143v-.2721h-.8905v-.4323ZM61.9122 54.0031h-.6299v-.6307h-.3212v1.5995h.3212v-.6993h.6299v.6993h.3213v-1.5995h-.3213v.6307ZM64.9302 54.2675h.7994v-.2721h-.7994v-.3509h.8601v-.2721h-1.1814v1.5995h1.2117v-.2721h-.8904v-.4323ZM69.0233 54.2676c.2782-.0432.4199-.1907.4199-.445.0081-.068-.0022-.137-.0298-.1996-.0276-.0627-.0715-.1167-.1271-.1564-.1448-.0728-.3064-.1052-.468-.0941h-.6779v1.5995h.3213v-.6688h.0632c.0685-.0042.137.008.1998.0356.047.029.0861.0691.1139.117l.3491.5086h.3845l-.1948-.3128c-.0861-.1544-.2075-.286-.3541-.384Zm-.3239-.2212h-.2377v-.4018h.2529c.1102-.0089.2211.004.3264.0381.0234.0207.0418.0464.054.0752.0122.0288.0177.06.0163.0913-.0015.0312-.0099.0618-.0247.0893-.0148.0275-.0356.0514-.0608.0697-.1056.0324-.2162.0453-.3264.0382ZM72.1096 54.2675h.7968v-.2721h-.7968v-.3509h.8601v-.2721h-1.1839v1.5995H73v-.2721h-.8904v-.4323Z" fill="#AFB1B8"/>
</svg>
